<svg width="52" height="53" viewBox="0 0 52 53" fill="none" xmlns="http://www.w3.org/2000/svg">
<mask id="path-1-outside-1_149_39" maskUnits="userSpaceOnUse" x="-2.15804" y="-2.26366" width="56.4879" height="57.3955" fill="black">
<rect fill="white" x="-2.15804" y="-2.26366" width="56.4879" height="57.3955"/>
<path d="M26.9811 50.5535C25.5827 45.3248 21.2228 38.9899 13.5815 34.2538C9.82531 31.9111 6.08975 30.5003 2.50376 30.0721L2.27322 27.4783C9.10352 25.1906 15.5413 19.8879 19.3607 13.1372C21.2985 9.72829 22.439 6.45246 22.7656 3.12448L25.3594 2.89395C26.9637 9.03805 32.3954 15.5267 39.3533 19.5766C42.7677 21.5761 46.2398 22.8237 49.7023 23.2629L49.9328 25.8566C43.2041 27.8863 35.7809 34.7083 32.3828 41.297C30.6865 44.6222 29.7711 47.629 29.5749 50.323L26.9811 50.5535Z"/>
</mask>
<path d="M26.9811 50.5535C25.5827 45.3248 21.2228 38.9899 13.5815 34.2538C9.82531 31.9111 6.08975 30.5003 2.50376 30.0721L2.27322 27.4783C9.10352 25.1906 15.5413 19.8879 19.3607 13.1372C21.2985 9.72829 22.439 6.45246 22.7656 3.12448L25.3594 2.89395C26.9637 9.03805 32.3954 15.5267 39.3533 19.5766C42.7677 21.5761 46.2398 22.8237 49.7023 23.2629L49.9328 25.8566C43.2041 27.8863 35.7809 34.7083 32.3828 41.297C30.6865 44.6222 29.7711 47.629 29.5749 50.323L26.9811 50.5535Z" fill="white"/>
<path d="M26.9811 50.5535L25.049 51.0702L25.4834 52.6945L27.1581 52.5457L26.9811 50.5535ZM13.5815 34.2538L12.5231 35.9508L12.5278 35.9537L13.5815 34.2538ZM2.50376 30.0721L0.511608 30.2491L0.655273 31.8655L2.26661 32.058L2.50376 30.0721ZM2.27322 27.4783L1.63804 25.5818L0.141339 26.0831L0.281077 27.6554L2.27322 27.4783ZM19.3607 13.1372L17.622 12.1489L17.62 12.1524L19.3607 13.1372ZM22.7656 3.12448L22.5886 1.13233L20.9372 1.27911L20.7752 2.92911L22.7656 3.12448ZM25.3594 2.89395L27.2945 2.38868L26.8672 0.752053L25.1824 0.901801L25.3594 2.89395ZM39.3533 19.5766L40.364 17.8507L40.3594 17.8481L39.3533 19.5766ZM49.7023 23.2629L51.6944 23.0858L51.5518 21.4814L49.9539 21.2788L49.7023 23.2629ZM49.9328 25.8566L50.5104 27.7714L52.0691 27.3013L51.9249 25.6796L49.9328 25.8566ZM32.3828 41.297L30.6053 40.3802L30.6012 40.3881L32.3828 41.297ZM29.5749 50.323L29.7519 52.3151L31.446 52.1646L31.5696 50.4683L29.5749 50.323ZM28.9132 50.0368C27.3642 44.2448 22.642 37.5165 14.6351 32.5538L12.5278 35.9537C19.8035 40.4633 23.8012 46.4047 25.049 51.0702L28.9132 50.0368ZM14.6399 32.5568C10.6899 30.0932 6.67707 28.5562 2.7409 28.0862L2.26661 32.058C5.50242 32.4444 8.96074 33.729 12.5231 35.9508L14.6399 32.5568ZM4.4959 29.895L4.26537 27.3012L0.281077 27.6554L0.511608 30.2491L4.4959 29.895ZM2.9084 29.3748C10.2237 26.9246 17.0475 21.2872 21.1014 14.1221L17.62 12.1524C14.0352 18.4885 7.9833 23.4566 1.63804 25.5818L2.9084 29.3748ZM21.0994 14.1256C23.1443 10.5283 24.3964 6.984 24.7561 3.31985L20.7752 2.92911C20.4816 5.92093 19.4527 8.9283 17.622 12.1489L21.0994 14.1256ZM22.9427 5.11663L25.5365 4.88609L25.1824 0.901801L22.5886 1.13233L22.9427 5.11663ZM23.4243 3.39921C25.1961 10.1852 31.0563 17.0613 38.3472 21.3051L40.3594 17.8481C33.7346 13.992 28.7312 7.8909 27.2945 2.38868L23.4243 3.39921ZM38.3426 21.3024C41.9537 23.4172 45.6815 24.7689 49.4506 25.247L49.9539 21.2788C46.7981 20.8785 43.5817 19.7351 40.364 17.8507L38.3426 21.3024ZM47.7101 23.4399L47.9406 26.0337L51.9249 25.6796L51.6944 23.0858L47.7101 23.4399ZM49.3552 23.9418C45.6287 25.0659 41.841 27.4654 38.5779 30.3742C35.3062 33.2909 32.4352 36.8322 30.6053 40.3802L34.1603 42.2137C35.7285 39.1731 38.2681 36.009 41.2397 33.3601C44.2199 30.7034 47.5081 28.677 50.5104 27.7714L49.3552 23.9418ZM30.6012 40.3881C28.8205 43.8789 27.8009 47.1471 27.5802 50.1777L31.5696 50.4683C31.7413 48.1109 32.5526 45.3655 34.1644 42.2058L30.6012 40.3881ZM29.3978 48.3308L26.804 48.5614L27.1581 52.5457L29.7519 52.3151L29.3978 48.3308Z" fill="black" mask="url(#path-1-outside-1_149_39)"/>
</svg>
